<svg width="212" height="38" viewBox="0 0 212 38" fill="none" xmlns="http://www.w3.org/2000/svg">
<rect x="0.5" y="0.5" width="211" height="37" rx="18.5" fill="url(#paint0_linear_2_152)" stroke="url(#paint1_radial_2_152)"/>
<path d="M66.668 21.8008H60.0586V17.1602H66.3164V15.8945H60.0586V11.4297H66.668V10.1992H58.582V23.0312H66.668V21.8008ZM75.668 13.9609L73.0664 17.3008L70.4297 13.9609H68.6719L72.2227 18.3555L68.4609 23.0312H70.2188L73.0664 19.4805L75.9141 23.0312H77.6719L73.9453 18.3555L77.4609 13.9609H75.668ZM87.832 18.4961C87.832 15.6836 86.2148 13.75 83.7891 13.75C82.3125 13.75 81.1875 14.4883 80.6602 15.7188L80.5195 13.9609H79.1484C79.2188 14.7344 79.2891 15.5781 79.2891 16.5273V26.9336H80.7305V21.3438C81.293 22.5039 82.3828 23.1719 83.7891 23.1719C86.2148 23.1719 87.832 21.3086 87.832 18.4961ZM86.3203 18.4961C86.3203 20.7109 85.3008 21.9414 83.543 21.9414C81.75 21.9414 80.7305 20.6758 80.7305 18.4609C80.7305 16.2109 81.75 14.9805 83.543 14.9805C85.2656 14.9805 86.3203 16.2812 86.3203 18.4961ZM91.9453 9.77734H90.5039V23.0312H91.9453V9.77734ZM94.2305 18.4609C94.2305 21.3086 95.918 23.1719 98.4844 23.1719C101.086 23.1719 102.773 21.3086 102.773 18.4609C102.773 15.6133 101.086 13.75 98.4844 13.75C95.918 13.75 94.2305 15.6133 94.2305 18.4609ZM101.297 18.4609C101.297 20.7461 100.312 21.9414 98.4844 21.9414C96.6914 21.9414 95.707 20.7461 95.707 18.4609C95.707 16.2461 96.7266 14.9805 98.4844 14.9805C100.242 14.9805 101.297 16.2461 101.297 18.4609ZM110.086 13.8555C109.84 13.7852 109.559 13.75 109.277 13.75C107.977 13.75 106.887 14.418 106.43 15.6484L106.289 13.9609H104.918C104.988 14.7344 105.059 15.5781 105.059 16.5273V23.0312H106.5V17.8633C106.5 17.0898 106.746 16.4219 107.133 15.8945C107.59 15.332 108.223 15.0508 109.102 15.0508C109.453 15.0508 109.805 15.1211 110.051 15.1914L110.086 13.8555ZM120.316 18.1797C120.316 15.4375 118.875 13.75 116.484 13.75C113.988 13.75 112.23 15.6836 112.23 18.4609C112.23 21.3789 113.918 23.1719 116.766 23.1719C118.031 23.1719 119.367 22.6797 120.176 21.9414L119.684 20.8867C118.805 21.5898 117.82 21.9414 116.766 21.9414C114.762 21.9414 113.707 20.7461 113.707 18.4609H120.316V18.1797ZM113.742 17.5117C114.023 15.8594 114.973 14.9102 116.484 14.9102C117.996 14.9102 118.875 15.7891 119.016 17.5117H113.742ZM142.676 17.3359C142.676 14.9453 141.656 13.75 139.688 13.75C138.316 13.75 137.191 14.4531 136.664 15.5078C136.207 14.3125 135.328 13.75 133.887 13.75C132.551 13.75 131.531 14.418 131.004 15.5781L130.863 13.9609H129.492C129.562 14.7344 129.633 15.5781 129.633 16.5273V23.0312H131.074V17.8633C131.074 16.0703 132.023 14.9805 133.57 14.9805C134.871 14.9805 135.434 15.7539 135.434 17.4062V23.0312H136.91V17.8633C136.91 16.0703 137.824 14.9805 139.336 14.9805C140.672 14.9805 141.234 15.7188 141.234 17.4062V23.0312H142.676V17.3359ZM151.887 15.543C151.324 14.418 150.234 13.75 148.828 13.75C146.438 13.75 144.82 15.6836 144.82 18.4961C144.82 21.3086 146.402 23.1719 148.828 23.1719C150.234 23.1719 151.359 22.5391 151.887 21.3789V23.0312H153.328V13.9609H151.887V15.543ZM151.887 18.4609C151.887 20.6758 150.902 21.9414 149.109 21.9414C147.316 21.9414 146.297 20.7109 146.297 18.4961C146.297 16.2812 147.316 14.9805 149.109 14.9805C150.902 14.9805 151.887 16.2109 151.887 18.4609ZM160.641 13.8555C160.395 13.7852 160.113 13.75 159.832 13.75C158.531 13.75 157.441 14.418 156.984 15.6484L156.844 13.9609H155.473C155.543 14.7344 155.613 15.5781 155.613 16.5273V23.0312H157.055V17.8633C157.055 17.0898 157.301 16.4219 157.688 15.8945C158.145 15.332 158.777 15.0508 159.656 15.0508C160.008 15.0508 160.359 15.1211 160.605 15.1914L160.641 13.8555ZM170.871 13.9961H169.043L164.754 18.1445V9.77734H163.312V23.0312H164.754V18.6719L169.43 23.0312H171.328L166.336 18.3203L170.871 13.9961ZM181.699 18.1797C181.699 15.4375 180.258 13.75 177.867 13.75C175.371 13.75 173.613 15.6836 173.613 18.4609C173.613 21.3789 175.301 23.1719 178.148 23.1719C179.414 23.1719 180.75 22.6797 181.559 21.9414L181.066 20.8867C180.188 21.5898 179.203 21.9414 178.148 21.9414C176.145 21.9414 175.09 20.7461 175.09 18.4609H181.699V18.1797ZM175.125 17.5117C175.406 15.8594 176.355 14.9102 177.867 14.9102C179.379 14.9102 180.258 15.7891 180.398 17.5117H175.125ZM188.52 13.9609H185.918V11.1484L184.477 11.6406V13.9609H182.719V15.1211H184.477V20.2891C184.477 22.1523 185.496 23.1719 187.219 23.1719C187.676 23.1719 188.098 23.1016 188.484 22.9609V21.7305C188.168 21.8359 187.852 21.9062 187.5 21.9062C186.516 21.9062 185.918 21.4141 185.918 20.0781V15.1211H188.52V13.9609Z" fill="white"/>
<path d="M27 18V16C27 12.2288 27 10.3431 28.1716 9.17157C29.3431 8 31.2288 8 35 8H37C40.7712 8 42.6569 8 43.8284 9.17157C45 10.3431 45 12.2288 45 16V18C45 21.7712 45 23.6569 43.8284 24.8284C42.6569 26 40.7712 26 37 26H36" stroke="#CCD2E3" stroke-width="2"/>
<path fill-rule="evenodd" clip-rule="evenodd" d="M42.9997 18.5854L42.7569 18.3425L42.7422 18.3279C42.6785 18.2642 42.6249 18.2106 42.5777 18.1672C41.1476 16.8531 38.8649 17.2236 37.9237 18.9224C37.8926 18.9785 37.8588 19.0463 37.8185 19.1268L37.8185 19.1268L37.8092 19.1454L37.781 19.2016L37.7791 19.2054L37.7763 19.2022L37.7354 19.1545L32.7593 13.3491C32.3999 12.9298 31.7686 12.8812 31.3492 13.2406C30.9299 13.6001 30.8813 14.2314 31.2408 14.6507L36.2168 20.4561L36.2257 20.4664C36.2545 20.5001 36.2884 20.5397 36.3193 20.5727C37.246 21.5622 38.8679 21.3626 39.5269 20.1778C39.5489 20.1383 39.5722 20.0917 39.592 20.052L39.592 20.052L39.5981 20.0399C39.6528 19.9304 39.6657 19.9052 39.6732 19.8916C39.9869 19.3253 40.7478 19.2019 41.2245 19.6399C41.236 19.6504 41.2561 19.6702 41.3427 19.7568L42.9442 21.3582C42.9902 20.6404 42.9984 19.748 42.9997 18.5854Z" fill="#CCD2E3"/>
<circle cx="40.5" cy="12.5" r="1.5" fill="#CCD2E3"/>
<path d="M32 21V20H33V21H32ZM27.6247 25.7809C27.1934 26.1259 26.5641 26.056 26.2191 25.6247C25.8741 25.1934 25.944 24.5641 26.3753 24.2191L27.6247 25.7809ZM31 26V21H33V26H31ZM32 22H27V20H32V22ZM32.6247 21.7809L27.6247 25.7809L26.3753 24.2191L31.3753 20.2191L32.6247 21.7809Z" fill="#CCD2E3"/>
<defs>
<linearGradient id="paint0_linear_2_152" x1="-1.18464e-06" y1="19" x2="212" y2="19" gradientUnits="userSpaceOnUse">
<stop stop-color="#9E1919"/>
<stop offset="1" stop-color="#FB4B4B"/>
</linearGradient>
<radialGradient id="paint1_radial_2_152" cx="0" cy="0" r="1" gradientUnits="userSpaceOnUse" gradientTransform="translate(106 19) scale(106 352.868)">
<stop stop-color="white" stop-opacity="0.6"/>
<stop offset="1" stop-color="white" stop-opacity="0"/>
</radialGradient>
</defs>
</svg>
