<svg width="24" height="24" viewBox="0 0 24 24" fill="none" xmlns="http://www.w3.org/2000/svg">
<path fill-rule="evenodd" clip-rule="evenodd" d="M16.0233 4.50341C17.8527 4.3766 19.2668 5.44519 20.2074 6.67737C21.1558 7.91976 21.8092 9.54336 22.1671 11.1394C22.5249 12.7347 22.6206 14.4504 22.3237 15.9123C22.0386 17.3161 21.2783 18.9223 19.5566 19.437C17.9373 19.9211 16.5177 19.2167 15.505 18.3648C14.4892 17.5103 13.629 16.3122 12.9528 15.1885C12.625 14.6438 12.327 14.0938 12.0635 13.573C11.7999 14.0938 11.5019 14.6438 11.1741 15.1885C10.4979 16.3122 9.63768 17.5103 8.62185 18.3648C7.60917 19.2167 6.18958 19.9211 4.57024 19.437C2.8486 18.9223 2.08824 17.3161 1.80317 15.9123C1.50631 14.4504 1.60193 12.7347 1.95971 11.1394C2.31765 9.54336 2.9711 7.91976 3.91948 6.67737C4.86005 5.44519 6.27413 4.3766 8.10359 4.50341C9.81972 4.62238 11.0672 5.78649 11.8444 6.77187L12.0635 7.0609L12.2825 6.77187C13.0596 5.78649 14.3071 4.62238 16.0233 4.50341ZM7.89613 7.49623C7.4756 7.46708 6.92667 7.6821 6.30412 8.49766C5.68937 9.30301 5.17957 10.4913 4.887 11.7959C4.59429 13.1011 4.55216 14.3747 4.74317 15.3153C4.90795 16.1268 5.17198 16.4174 5.33512 16.5187L5.40252 16.5532L5.42949 16.5627C5.66216 16.6322 6.04358 16.6134 6.69065 16.0691C7.33458 15.5274 7.99294 14.6564 8.60368 13.6416C8.87605 13.189 9.12836 12.7252 9.3554 12.2791L9.61539 11.7541L9.84912 11.2571L10.0546 10.7994L10.2298 10.3919L10.3728 10.0459C10.2163 9.73315 9.99194 9.32834 9.71008 8.92724C9.06588 8.01052 8.42049 7.53258 7.89613 7.49623ZM16.2307 7.49623C15.7064 7.53258 15.061 8.01052 14.4168 8.92724C14.1349 9.32834 13.9106 9.73315 13.7541 10.0459L13.9807 10.5887L14.1713 11.0227C14.2056 11.099 14.2411 11.1773 14.2777 11.2571L14.5114 11.7541L14.7714 12.2791C14.9985 12.7252 15.2508 13.189 15.5232 13.6416C16.1339 14.6564 16.7923 15.5274 17.4362 16.0691C18.037 16.5745 18.4088 16.6268 18.6452 16.5761L18.6974 16.5627C18.8277 16.5237 19.1809 16.3141 19.3837 15.3153C19.5747 14.3747 19.5326 13.1011 19.2399 11.7959C18.9473 10.4913 18.4375 9.30301 17.8227 8.49766C17.2002 7.6821 16.6513 7.46708 16.2307 7.49623Z" fill="#A92E2E"/>
</svg>
